<?xml version="1.0" encoding="UTF-8"?>
<svg width="16px" height="16px" viewBox="0 0 16 16" version="1.1" xmlns="http://www.w3.org/2000/svg" xmlns:xlink="http://www.w3.org/1999/xlink">
    <!-- Generator: Sketch 50.2 (55047) - http://www.bohemiancoding.com/sketch -->
    <title>icons/time</title>
    <desc>Created with Sketch.</desc>
    <defs></defs>
    <g id="客户管理" stroke="none" stroke-width="1" fill="none" fill-rule="evenodd">
        <g id="会员卡消费记录" transform="translate(-15.000000, -828.000000)">
            <g id="info-form" transform="translate(0.000000, 746.000000)">
                <g id="cell" transform="translate(0.000000, 60.000000)">
                    <g id="icons/time" transform="translate(15.000000, 22.000000)">
                        <g>
                            <rect id="Rectangle-path" x="0" y="0" width="16" height="16"></rect>
                            <path d="M8,0 C3.6,0 0,3.6 0,8 C0,12.4 3.6,16 8,16 C12.4,16 16,12.4 16,8 C16,3.6 12.4,0 8,0 Z M8,14 C4.7,14 2,11.3 2,8 C2,4.7 4.7,2 8,2 C11.3,2 14,4.7 14,8 C14,11.3 11.3,14 8,14 Z" id="Shape" fill="#444444" fill-rule="nonzero"></path>
                            <polygon id="Shape" fill="#444444" fill-rule="nonzero" points="9 4 7 4 7 9 12 9 12 7 9 7"></polygon>
                        </g>
                    </g>
                </g>
            </g>
        </g>
    </g>
</svg>