<?xml version="1.0" encoding="UTF-8"?>
<svg width="16px" height="16px" viewBox="0 0 16 16" version="1.1" xmlns="http://www.w3.org/2000/svg" xmlns:xlink="http://www.w3.org/1999/xlink">
    <!-- Generator: Sketch 50.2 (55047) - http://www.bohemiancoding.com/sketch -->
    <title>icons/vehicle</title>
    <desc>Created with Sketch.</desc>
    <defs></defs>
    <g id="客户管理" stroke="none" stroke-width="1" fill="none" fill-rule="evenodd">
        <g id="会员卡消费记录" transform="translate(-15.000000, -399.000000)">
            <g id="info-form" transform="translate(0.000000, 197.000000)">
                <g id="cell" transform="translate(0.000000, 180.000000)">
                    <g id="icons/vehicle" transform="translate(15.000000, 22.000000)">
                        <g>
                            <rect id="Rectangle-path" x="0" y="0" width="16" height="16"></rect>
                            <path d="M15.9,8.6 L15,6.7 L14,0.8 C13.9,0.4 13.5,0 13,0 L3,0 C2.5,0 2.1,0.4 2,0.8 L1,6.7 L0.1,8.6 C0,8.7 0,8.8 0,9 L0,13 C0,13.6 0.4,14 1,14 L1,15 C1,15.6 1.4,16 2,16 L4,16 C4.6,16 5,15.6 5,15 L5,14 L11,14 L11,15 C11,15.6 11.4,16 12,16 L14,16 C14.6,16 15,15.6 15,15 L15,14 C15.6,14 16,13.6 16,13 L16,9 C16,8.8 16,8.7 15.9,8.6 Z M3.8,2 L12.1,2 L12.8,6 L3.2,6 L3.8,2 Z M2,12 L2,9.2 L2.6,8 L13.4,8 L14,9.2 L14,12 L2,12 Z" id="Shape" fill="#444444" fill-rule="nonzero"></path>
                            <circle id="Oval" fill="#444444" fill-rule="nonzero" cx="4" cy="10" r="1"></circle>
                            <circle id="Oval" fill="#444444" fill-rule="nonzero" cx="12" cy="10" r="1"></circle>
                        </g>
                    </g>
                </g>
            </g>
        </g>
    </g>
</svg>