<?xml version="1.0" encoding="UTF-8"?>
<svg width="27px" height="27px" viewBox="0 0 27 27" version="1.1" xmlns="http://www.w3.org/2000/svg" xmlns:xlink="http://www.w3.org/1999/xlink">
    <!-- Generator: Sketch 50.2 (55047) - http://www.bohemiancoding.com/sketch -->
    <title>1</title>
    <desc>Created with Sketch.</desc>
    <defs>
        <linearGradient x1="25.4212623%" y1="7.00635723%" x2="74.3585325%" y2="92.9974724%" id="linearGradient-1">
            <stop stop-color="#50BEF7" offset="0%"></stop>
            <stop stop-color="#227FF2" offset="100%"></stop>
        </linearGradient>
    </defs>
    <g id="客户管理" stroke="none" stroke-width="1" fill="none" fill-rule="evenodd">
        <g id="个人中心主页" transform="translate(-20.000000, -330.000000)">
            <g id="1" transform="translate(20.000000, 330.000000)">
                <circle id="Oval-2" fill="url(#linearGradient-1)" cx="13.5" cy="13.5" r="13.5"></circle>
                <g id="客户" transform="translate(6.500000, 5.500000)" fill="#FFFFFF">
                    <path d="M10.2721947,8.47227339 C12.1069804,9.66858351 13.5882435,12.0706918 13.5882435,14.4161866 C13.5882435,14.7388202 13.3134755,15 12.9740561,15 L0.702430869,15 C0.363011533,15 0.0882434996,14.7388203 0.0882434996,14.4161866 C0.0882434996,12.0840079 1.40633941,9.67504843 3.37089818,8.44762701 C4.32651762,9.15837173 5.530367,9.58285322 6.8382435,9.58285322 C8.13093115,9.58285322 9.32199385,9.1681738 10.2721947,8.47227339 Z M3.27625014,4.25 C3.94432292,2.41585602 10.125468,2.3840778 10.6665594,4.25 L9.8023096,4.25 C9.8023096,5.81379528 8.46722668,7.08285322 6.8382435,7.08285322 C5.20926032,7.08285322 3.8741774,5.81379528 3.8741774,4.25 L3.27625014,4.25 Z M7.18175725,10.7645423 C7.13726521,10.686284 7.07247036,10.6214891 6.99421203,10.5769971 C6.75415393,10.4405173 6.4489097,10.5244842 6.31242996,10.7645423 L5.41327275,12.3460955 C5.18613595,12.7456129 5.26054485,13.2485094 5.59364253,13.5651341 L6.05813611,14.0066567 C6.44415736,14.3735877 7.05002986,14.3735877 7.43605111,14.0066567 L7.90054469,13.5651341 C8.23364237,13.2485094 8.30805127,12.7456129 8.08091447,12.3460955 L7.18175725,10.7645423 Z" id="Combined-Shape" fill-rule="nonzero"></path>
                    <path d="M6.79980469,8.24072266 C9.00894369,8.24072266 10.7998047,6.44986166 10.7998047,4.24072266 C10.7998047,2.03158366 9.00894369,0.240722656 6.79980469,0.240722656 C4.59066569,0.240722656 2.79980469,2.03158366 2.79980469,4.24072266 C2.79980469,6.44986166 4.59066569,8.24072266 6.79980469,8.24072266 Z" id="Oval-3"></path>
                </g>
            </g>
        </g>
    </g>
</svg>