<?xml version="1.0" encoding="UTF-8"?>
<svg width="11px" height="11px" viewBox="0 0 11 11" version="1.1" xmlns="http://www.w3.org/2000/svg" xmlns:xlink="http://www.w3.org/1999/xlink">
    <!-- Generator: Sketch 54.1 (76490) - https://sketchapp.com -->
    <title>合并形状</title>
    <desc>Created with Sketch.</desc>
    <g id="页面1" stroke="none" stroke-width="1" fill="none" fill-rule="evenodd">
        <g id="消息通知字段优化-消费详情（一个订单）" transform="translate(-334.000000, -111.000000)" fill="#A1A6B4">
            <g id="编组-10" transform="translate(15.000000, 86.000000)">
                <g id="编组" transform="translate(319.000000, 25.000000)">
                    <path d="M5.5,4.46045781 L9.82438646,0.136071349 C10.0196486,-0.0591907967 10.3362311,-0.0591907967 10.5314932,0.136071349 L10.8639287,0.468506757 C11.0591908,0.663768903 11.0591908,0.980351393 10.8639287,1.17561354 L6.53954219,5.5 L10.8639287,9.82438646 C11.0591908,10.0196486 11.0591908,10.3362311 10.8639287,10.5314932 L10.5314932,10.8639287 C10.3362311,11.0591908 10.0196486,11.0591908 9.82438646,10.8639287 L5.5,6.53954219 L1.17561354,10.8639287 C0.980351393,11.0591908 0.663768903,11.0591908 0.468506757,10.8639287 L0.136071349,10.5314932 C-0.0591907967,10.3362311 -0.0591907967,10.0196486 0.136071349,9.82438646 L4.46045781,5.5 L0.136071349,1.17561354 C-0.0591907967,0.980351393 -0.0591907967,0.663768903 0.136071349,0.468506757 L0.468506757,0.136071349 C0.663768903,-0.0591907967 0.980351393,-0.0591907967 1.17561354,0.136071349 L5.5,4.46045781 Z" id="合并形状" transform="translate(5.500000, 5.500000) rotate(-360.000000) translate(-5.500000, -5.500000) "></path>
                </g>
            </g>
        </g>
    </g>
</svg>