<?xml version="1.0" encoding="UTF-8"?>
<svg width="345px" height="93px" viewBox="0 0 345 93" version="1.1" xmlns="http://www.w3.org/2000/svg" xmlns:xlink="http://www.w3.org/1999/xlink">
    <!-- Generator: Sketch 54.1 (76490) - https://sketchapp.com -->
    <title>编组 2</title>
    <desc>Created with Sketch.</desc>
    <defs>
        <linearGradient x1="50%" y1="0%" x2="50%" y2="100%" id="linearGradient-1">
            <stop stop-color="#FFFFFF" offset="0%"></stop>
            <stop stop-color="#E0E6FF" offset="100%"></stop>
        </linearGradient>
        <linearGradient x1="-65.5861051%" y1="38.267216%" x2="100%" y2="54.3582766%" id="linearGradient-2">
            <stop stop-color="#97B2FF" offset="0%"></stop>
            <stop stop-color="#5E7BFF" offset="100%"></stop>
        </linearGradient>
        <path d="M330,28 L330,93 L15,93 L15,28 C15,12.536027 27.536027,2.84068575e-15 43,0 L302,0 C317.463973,-2.84068575e-15 330,12.536027 330,28 Z" id="path-3"></path>
        <filter x="-13.3%" y="-323.1%" width="126.7%" height="746.2%" filterUnits="objectBoundingBox" id="filter-5">
            <feGaussianBlur stdDeviation="14" in="SourceGraphic"></feGaussianBlur>
        </filter>
    </defs>
    <g id="页面1" stroke="none" stroke-width="1" fill="none" fill-rule="evenodd">
        <g id="消息通知-预约提醒详情-完整内容" transform="translate(-15.000000, -121.000000)">
            <g id="编组-7" transform="translate(15.000000, 121.000000)">
                <path d="M2,0 L343,0 C344.104569,-2.02906125e-16 345,0.8954305 345,2 L345,93 L0,93 L0,2 C-1.3527075e-16,0.8954305 0.8954305,2.02906125e-16 2,0 Z" id="Rectangle复制" fill="url(#linearGradient-1)" fill-rule="nonzero"></path>
                <mask id="mask-4" fill="white">
                    <use xlink:href="#path-3"></use>
                </mask>
                <use id="Line-Copy-6复制" fill="url(#linearGradient-2)" fill-rule="nonzero" xlink:href="#path-3"></use>
                <rect id="矩形" fill="#506EE3" filter="url(#filter-5)" mask="url(#mask-4)" x="15" y="89" width="315" height="13"></rect>
                <g id="编组-2" mask="url(#mask-4)" fill="#FFFFFF" fill-rule="nonzero">
                    <g transform="translate(33.000000, 5.000000)" id="形状">
                        <path d="M29.6385542,76.2771084 C13.2958696,76.2771084 -1.13686838e-13,62.9812389 -1.13686838e-13,46.6385542 C-1.13686838e-13,30.2958696 13.2958696,17 29.6385542,17 C45.9812388,17 59.2771084,30.2958696 59.2771084,46.6385542 C59.2771084,62.9812389 45.9775187,76.2771084 29.6385542,76.2771084 Z M29.6385542,23.2498771 C16.7243903,23.2621822 6.258462,33.7281105 6.24615695,46.6422744 C6.24615695,59.5438065 16.7370221,70.0383918 29.6385542,70.0383918 C42.5400863,70.0383918 53.0272313,59.5475267 53.0272313,46.6422744 C53.016977,33.7287123 42.5521145,23.2621853 29.6385542,23.2498771 L29.6385542,23.2498771 Z" opacity="0.08"></path>
                        <path d="M30.16149,63.9879518 L13.7349398,47.163354 L30.5651742,30.7349398 L46.9879518,47.567084 L30.16149,63.9879518 Z M20.4542062,47.2463639 L30.2407178,57.2754693 L40.2611398,47.4878472 L30.4859465,37.4549686 L20.4542062,47.2463639 L20.4542062,47.2463639 Z" opacity="0.15"></path>
                        <path d="M192,38 C181.523409,38 173,29.4765909 173,19 C173,8.52340911 181.523409,0 192,0 C202.476591,0 211,8.52340908 211,19 C211,29.476591 202.474206,38 192,38 Z M192,4.00652691 C183.721286,4.01441516 177.01203,10.7236708 177.004142,19.0023848 C177.004142,27.2730011 183.729384,34.0006276 192,34.0006276 C200.270616,34.0006276 206.993473,27.275386 206.993473,19.0023848 C206.986899,10.7240566 200.278327,4.01441718 192,4.00652691 L192,4.00652691 Z" opacity="0.08"></path>
                        <path d="M192.373724,30 L182,19.3749007 L192.628659,9 L203,19.629865 L192.373724,30 Z M186.243363,19.4273233 L192.423758,25.7609214 L198.751872,19.5798253 L192.578625,13.2438443 L186.243363,19.4273233 L186.243363,19.4273233 Z" opacity="0.15"></path>
                        <path d="M273,84 C262.523409,84 254,75.4765909 254,65 C254,54.5234091 262.523409,46 273,46 C283.476591,46 292,54.5234091 292,65 C292,75.476591 283.474206,84 273,84 Z M273,50.0065269 C264.721286,50.0144152 258.01203,56.7236708 258.004142,65.0023848 C258.004142,73.2730011 264.729384,80.0006276 273,80.0006276 C281.270616,80.0006276 287.993473,73.275386 287.993473,65.0023848 C287.986899,56.7240566 281.278327,50.0144172 273,50.0065269 L273,50.0065269 Z" opacity="0.08"></path>
                        <path d="M273.373724,76 L263,65.3749007 L273.628659,55 L284,65.629865 L273.373724,76 Z M267.243363,65.4273233 L273.423758,71.7609214 L279.751872,65.5798253 L273.578625,59.2438443 L267.243363,65.4273233 L267.243363,65.4273233 Z" opacity="0.15"></path>
                    </g>
                </g>
            </g>
        </g>
    </g>
</svg>